<mxfile host="65bd71144e">
    <diagram id="bTwMuKPXgiZliClU28HP" name="Page-1">
        <mxGraphModel dx="418" dy="363" grid="1" gridSize="10" guides="1" tooltips="1" connect="1" arrows="1" fold="1" page="1" pageScale="1" pageWidth="1169" pageHeight="827" math="0" shadow="0">
            <root>
                <mxCell id="0"/>
                <mxCell id="1" parent="0"/>
                <mxCell id="5" value="" style="rounded=0;whiteSpace=wrap;html=1;strokeColor=none;" parent="1" vertex="1">
                    <mxGeometry x="230" y="350" width="220" height="210" as="geometry"/>
                </mxCell>
                <mxCell id="2" value="Train" style="rounded=0;whiteSpace=wrap;html=1;fillColor=#d5e8d4;strokeColor=#82b366;" parent="1" vertex="1">
                    <mxGeometry x="240" y="360" width="40" height="20" as="geometry"/>
                </mxCell>
                <mxCell id="3" value="Valid" style="rounded=0;whiteSpace=wrap;html=1;fillColor=#ffe6cc;strokeColor=#d79b00;" parent="1" vertex="1">
                    <mxGeometry x="400" y="360" width="40" height="20" as="geometry"/>
                </mxCell>
                <mxCell id="6" value="Train" style="rounded=0;whiteSpace=wrap;html=1;fillColor=#d5e8d4;strokeColor=#82b366;" vertex="1" parent="1">
                    <mxGeometry x="280" y="360" width="40" height="20" as="geometry"/>
                </mxCell>
                <mxCell id="7" value="Train" style="rounded=0;whiteSpace=wrap;html=1;fillColor=#d5e8d4;strokeColor=#82b366;" vertex="1" parent="1">
                    <mxGeometry x="320" y="360" width="40" height="20" as="geometry"/>
                </mxCell>
                <mxCell id="8" value="Train" style="rounded=0;whiteSpace=wrap;html=1;fillColor=#d5e8d4;strokeColor=#82b366;" vertex="1" parent="1">
                    <mxGeometry x="360" y="360" width="40" height="20" as="geometry"/>
                </mxCell>
                <mxCell id="10" value="Train" style="rounded=0;whiteSpace=wrap;html=1;fillColor=#d5e8d4;strokeColor=#82b366;" vertex="1" parent="1">
                    <mxGeometry x="240" y="390" width="40" height="20" as="geometry"/>
                </mxCell>
                <mxCell id="11" value="Valid" style="rounded=0;whiteSpace=wrap;html=1;fillColor=#ffe6cc;strokeColor=#d79b00;" vertex="1" parent="1">
                    <mxGeometry x="360" y="390" width="40" height="20" as="geometry"/>
                </mxCell>
                <mxCell id="12" value="Train" style="rounded=0;whiteSpace=wrap;html=1;fillColor=#d5e8d4;strokeColor=#82b366;" vertex="1" parent="1">
                    <mxGeometry x="280" y="390" width="40" height="20" as="geometry"/>
                </mxCell>
                <mxCell id="13" value="Train" style="rounded=0;whiteSpace=wrap;html=1;fillColor=#d5e8d4;strokeColor=#82b366;" vertex="1" parent="1">
                    <mxGeometry x="320" y="390" width="40" height="20" as="geometry"/>
                </mxCell>
                <mxCell id="14" value="Train" style="rounded=0;whiteSpace=wrap;html=1;fillColor=#d5e8d4;strokeColor=#82b366;" vertex="1" parent="1">
                    <mxGeometry x="400" y="390" width="40" height="20" as="geometry"/>
                </mxCell>
                <mxCell id="15" value="Train" style="rounded=0;whiteSpace=wrap;html=1;fillColor=#d5e8d4;strokeColor=#82b366;" vertex="1" parent="1">
                    <mxGeometry x="240" y="420" width="40" height="20" as="geometry"/>
                </mxCell>
                <mxCell id="16" value="Valid" style="rounded=0;whiteSpace=wrap;html=1;fillColor=#ffe6cc;strokeColor=#d79b00;" vertex="1" parent="1">
                    <mxGeometry x="320" y="420" width="40" height="20" as="geometry"/>
                </mxCell>
                <mxCell id="17" value="Train" style="rounded=0;whiteSpace=wrap;html=1;fillColor=#d5e8d4;strokeColor=#82b366;" vertex="1" parent="1">
                    <mxGeometry x="280" y="420" width="40" height="20" as="geometry"/>
                </mxCell>
                <mxCell id="18" value="Train" style="rounded=0;whiteSpace=wrap;html=1;fillColor=#d5e8d4;strokeColor=#82b366;" vertex="1" parent="1">
                    <mxGeometry x="360" y="420" width="40" height="20" as="geometry"/>
                </mxCell>
                <mxCell id="19" value="Train" style="rounded=0;whiteSpace=wrap;html=1;fillColor=#d5e8d4;strokeColor=#82b366;" vertex="1" parent="1">
                    <mxGeometry x="400" y="420" width="40" height="20" as="geometry"/>
                </mxCell>
                <mxCell id="20" value="Train" style="rounded=0;whiteSpace=wrap;html=1;fillColor=#d5e8d4;strokeColor=#82b366;" vertex="1" parent="1">
                    <mxGeometry x="240" y="450" width="40" height="20" as="geometry"/>
                </mxCell>
                <mxCell id="21" value="Valid" style="rounded=0;whiteSpace=wrap;html=1;fillColor=#ffe6cc;strokeColor=#d79b00;" vertex="1" parent="1">
                    <mxGeometry x="280" y="450" width="40" height="20" as="geometry"/>
                </mxCell>
                <mxCell id="22" value="Train" style="rounded=0;whiteSpace=wrap;html=1;fillColor=#d5e8d4;strokeColor=#82b366;" vertex="1" parent="1">
                    <mxGeometry x="400" y="450" width="40" height="20" as="geometry"/>
                </mxCell>
                <mxCell id="23" value="Train" style="rounded=0;whiteSpace=wrap;html=1;fillColor=#d5e8d4;strokeColor=#82b366;" vertex="1" parent="1">
                    <mxGeometry x="320" y="450" width="40" height="20" as="geometry"/>
                </mxCell>
                <mxCell id="24" value="Train" style="rounded=0;whiteSpace=wrap;html=1;fillColor=#d5e8d4;strokeColor=#82b366;" vertex="1" parent="1">
                    <mxGeometry x="360" y="450" width="40" height="20" as="geometry"/>
                </mxCell>
                <mxCell id="25" value="Train" style="rounded=0;whiteSpace=wrap;html=1;fillColor=#d5e8d4;strokeColor=#82b366;" vertex="1" parent="1">
                    <mxGeometry x="400" y="480" width="40" height="20" as="geometry"/>
                </mxCell>
                <mxCell id="26" value="Valid" style="rounded=0;whiteSpace=wrap;html=1;fillColor=#ffe6cc;strokeColor=#d79b00;" vertex="1" parent="1">
                    <mxGeometry x="240" y="480" width="40" height="20" as="geometry"/>
                </mxCell>
                <mxCell id="27" value="Train" style="rounded=0;whiteSpace=wrap;html=1;fillColor=#d5e8d4;strokeColor=#82b366;" vertex="1" parent="1">
                    <mxGeometry x="280" y="480" width="40" height="20" as="geometry"/>
                </mxCell>
                <mxCell id="28" value="Train" style="rounded=0;whiteSpace=wrap;html=1;fillColor=#d5e8d4;strokeColor=#82b366;" vertex="1" parent="1">
                    <mxGeometry x="320" y="480" width="40" height="20" as="geometry"/>
                </mxCell>
                <mxCell id="29" value="Train" style="rounded=0;whiteSpace=wrap;html=1;fillColor=#d5e8d4;strokeColor=#82b366;" vertex="1" parent="1">
                    <mxGeometry x="360" y="480" width="40" height="20" as="geometry"/>
                </mxCell>
                <mxCell id="31" value="Valid" style="rounded=0;whiteSpace=wrap;html=1;fillColor=#ffe6cc;strokeColor=#d79b00;" vertex="1" parent="1">
                    <mxGeometry x="400" y="530" width="40" height="20" as="geometry"/>
                </mxCell>
                <mxCell id="35" value="Valid" style="rounded=0;whiteSpace=wrap;html=1;fillColor=#ffe6cc;strokeColor=#d79b00;" vertex="1" parent="1">
                    <mxGeometry x="240" y="530" width="40" height="20" as="geometry"/>
                </mxCell>
                <mxCell id="36" value="Valid" style="rounded=0;whiteSpace=wrap;html=1;fillColor=#ffe6cc;strokeColor=#d79b00;" vertex="1" parent="1">
                    <mxGeometry x="280" y="530" width="40" height="20" as="geometry"/>
                </mxCell>
                <mxCell id="37" value="Valid" style="rounded=0;whiteSpace=wrap;html=1;fillColor=#ffe6cc;strokeColor=#d79b00;" vertex="1" parent="1">
                    <mxGeometry x="320" y="530" width="40" height="20" as="geometry"/>
                </mxCell>
                <mxCell id="38" value="Valid" style="rounded=0;whiteSpace=wrap;html=1;fillColor=#ffe6cc;strokeColor=#d79b00;" vertex="1" parent="1">
                    <mxGeometry x="360" y="530" width="40" height="20" as="geometry"/>
                </mxCell>
                <mxCell id="39" value="" style="shape=flexArrow;endArrow=classic;html=1;width=37.35849056603774;endSize=2.8000000000000003;fillColor=#FF66B3;" edge="1" parent="1">
                    <mxGeometry width="50" height="50" relative="1" as="geometry">
                        <mxPoint x="339" y="508" as="sourcePoint"/>
                        <mxPoint x="338.81" y="524" as="targetPoint"/>
                    </mxGeometry>
                </mxCell>
            </root>
        </mxGraphModel>
    </diagram>
</mxfile>